PathFileType	4	(X/Y/Z)	C:/Users/opensim2020/Desktop/walking_exp_matlab/subject02_walking05_straight_02.trc	
DataRate	CameraRate	NumFrames	NumMarkers	Units	OrigDataRate	OrigDataStartFrame	OrigNumFrames	
100.00	100.00	5	42	mm	100.00	1366	243	
Frame#	Time	LFHD			RFHD			LBHD			RBHD			C7			T10			CLAV			STRN			RBAK			LSHO			LUPA			LELB			LFRM			LWRA			LWRB			LFIN			RSHO			RUPA			RELB			RFRM			RWRA			RWRB			RFIN			LASI			RASI			LPSI			RPSI			LTHI			LKNE			LTIB			LANK			LHEE			LTOE			RTHI			RKNE			RTIB			RANK			RHEE			RTOE			*39			*40			*41			
		X1	Y1	Z1	X2	Y2	Z2	X3	Y3	Z3	X4	Y4	Z4	X5	Y5	Z5	X6	Y6	Z6	X7	Y7	Z7	X8	Y8	Z8	X9	Y9	Z9	X10	Y10	Z10	X11	Y11	Z11	X12	Y12	Z12	X13	Y13	Z13	X14	Y14	Z14	X15	Y15	Z15	X16	Y16	Z16	X17	Y17	Z17	X18	Y18	Z18	X19	Y19	Z19	X20	Y20	Z20	X21	Y21	Z21	X22	Y22	Z22	X23	Y23	Z23	X24	Y24	Z24	X25	Y25	Z25	X26	Y26	Z26	X27	Y27	Z27	X28	Y28	Z28	X29	Y29	Z29	X30	Y30	Z30	X31	Y31	Z31	X32	Y32	Z32	X33	Y33	Z33	X34	Y34	Z34	X35	Y35	Z35	X36	Y36	Z36	X37	Y37	Z37	X38	Y38	Z38	X39	Y39	Z39	X40	Y40	Z40	X41	Y41	Z41	X42	Y42	Z42	

1	0.000	1538.49768	1155.82751	1762.62793	1396.79578	1148.72534	1743.57996	1544.79626	1266.48181	1660.20081	1403.83447	1271.48840	1637.72986	1464.18372	1301.19043	1532.87280	1450.91516	1358.56580	1260.53894	1491.89368	1164.38818	1463.68079	1488.88953	1114.98975	1289.55518	1392.06140	1352.53992	1363.35864	1650.15076	1250.39868	1507.26208	1749.82849	1246.50317	1315.98816	1781.91797	1220.99756	1179.05518	1801.94495	1164.66833	1059.08716	1778.36633	1065.33203	964.31317	1810.84082	1109.40649	949.93250	1818.95581	1065.93225	900.10974	1290.23755	1195.32739	1498.51038	1204.67969	1205.57507	1304.88318	1188.74219	1179.29773	1159.75989	1177.51758	1135.54810	1046.72107	1206.91528	1076.25854	927.29993	1167.26282	1116.71484	918.22473	1172.49548	1071.56763	860.87384	1614.96826	1147.79724	998.04498	1359.60229	1114.70300	985.34094	1502.37671	1345.66919	1040.52869	1388.65588	1335.28406	1037.87451	1652.11060	1242.38550	691.98431	1618.08691	1290.59875	491.85114	1606.16602	1360.54590	308.96774	1575.81140	1359.77429	81.12244	1520.25989	1385.38208	54.38473	1613.33154	1207.22876	39.20132	1262.96729	1122.54309	690.28369	1281.86841	1063.92102	494.30032	1269.43018	1137.63416	322.99622	1293.87695	1186.78687	135.58575	1351.42139	1221.91736	80.86426	1262.92542	1051.38965	57.65651	1445.38501	1267.45227	1802.85413	-3360.20288	2845.20166	1033.69763			 
2	0.010	1539.63171	1147.22925	1762.23389	1397.73376	1140.84631	1742.91528	1546.49744	1257.99915	1660.00500	1405.57239	1263.86389	1637.44617	1466.12305	1293.58765	1532.61267	1452.42871	1351.06140	1260.18872	1492.80737	1156.72876	1463.09204	1489.85681	1107.35669	1289.02393	1391.73865	1342.45642	1361.79785	1651.62195	1241.84473	1507.30823	1752.08252	1235.85718	1316.90295	1785.09387	1208.38306	1180.54602	1805.54663	1149.92493	1061.61255	1781.90515	1049.07239	968.46570	1814.75171	1092.70679	953.51868	1823.08850	1048.24121	904.65247	1291.50269	1188.96301	1498.02014	1205.83643	1200.59705	1304.50659	1189.38953	1175.33240	1159.47485	1177.02881	1132.64587	1046.26282	1205.60938	1073.88086	926.31799	1166.29138	1114.91687	917.53809	1170.76660	1070.37488	859.82843	1615.69873	1140.56006	996.81750	1359.87781	1106.77356	985.22217	1502.93518	1338.51648	1040.45154	1389.39575	1328.08301	1037.79663	1652.22083	1236.93335	691.47937	1618.31299	1286.34680	491.65964	1606.15417	1357.90295	309.40057	1575.69556	1359.23865	81.82186	1519.97974	1384.89783	55.05717	1613.53552	1206.87646	39.12564	1264.46472	1114.48877	690.08881	1284.94055	1054.40002	493.82068	1271.54382	1119.85596	319.03619	1295.15674	1160.78430	129.54692	1352.02551	1194.33838	73.61616	1266.55603	1021.37921	57.75462	1446.86804	1259.16125	1802.45459	-3360.11450	2845.10938	1033.79529			 
3	0.020	1540.27234	1138.43201	1761.58728	1398.59717	1133.24573	1742.43616	1547.98071	1249.52380	1659.75610	1407.09253	1256.21887	1637.17761	1467.75916	1285.97571	1532.20618	1453.99915	1343.56506	1259.79297	1494.08838	1149.07104	1462.76575	1490.76318	1099.81421	1288.52869	1396.30432	1338.50159	1362.65991	1652.83777	1233.32788	1507.24780	1754.11633	1225.45166	1317.64941	1787.95679	1195.95752	1181.86389	1808.88647	1135.51624	1064.07849	1785.57593	1033.12512	972.71222	1818.39221	1076.42114	957.01141	1827.02808	1031.08740	909.18140	1292.68457	1182.62109	1497.53870	1207.06543	1196.03564	1304.44971	1189.30383	1171.85864	1159.39954	1176.78345	1129.58826	1045.72876	1204.44202	1072.45703	925.03943	1164.94153	1112.98181	916.98358	1169.28796	1068.82117	858.77649	1616.09131	1133.06714	995.86322	1360.23401	1099.29395	984.85809	1503.55396	1331.19788	1040.26660	1390.07324	1320.69690	1037.63428	1652.30396	1231.42700	690.83356	1618.35327	1281.93201	491.39929	1606.23743	1355.04260	309.72867	1575.42712	1358.28687	82.39559	1519.66443	1384.37817	55.87074	1613.77197	1206.44714	39.04063	1265.87756	1106.57349	689.76801	1287.85828	1045.40771	492.97879	1273.26404	1102.55078	315.32541	1296.15588	1134.56921	124.10178	1352.54553	1166.46033	66.75369	1270.09253	991.44495	58.50289	1448.44800	1250.89453	1802.28101	-3360.18042	2845.35181	1033.81531			 
4	0.030	1540.90759	1129.75989	1760.88806	1399.13879	1125.08521	1741.76917	1549.29871	1241.08154	1659.35144	1408.47681	1248.60535	1636.76709	1469.24353	1278.35413	1531.67639	1455.29456	1335.98853	1259.26270	1494.90674	1141.27588	1462.20923	1491.70276	1092.21130	1288.07166	1398.04895	1331.34119	1362.07312	1653.72986	1224.80261	1507.07629	1755.96045	1215.31079	1318.32349	1790.83289	1183.86499	1183.27490	1811.93408	1121.41113	1066.46399	1788.80969	1017.64203	976.71387	1821.79956	1060.63184	960.42621	1830.85657	1014.37988	913.65009	1293.71301	1176.05725	1496.97693	1207.79480	1190.72900	1304.11011	1189.62268	1167.72571	1159.18237	1176.33325	1126.84375	1045.35815	1202.96570	1069.98865	923.99286	1164.04785	1111.06042	916.44360	1167.60022	1067.34705	857.77405	1616.17480	1125.52136	995.11908	1360.38416	1092.08301	984.10840	1504.16492	1323.71008	1039.96008	1390.70789	1313.14453	1037.41943	1652.39636	1225.73669	689.98199	1618.26282	1277.29688	490.98831	1606.34729	1351.83386	309.87604	1575.27563	1357.44995	83.06944	1519.17090	1383.71533	56.40939	1613.94312	1206.00745	39.00341	1267.15259	1098.84900	689.16980	1290.71985	1036.95447	491.96463	1274.86475	1085.29541	311.70630	1297.02234	1108.14514	118.96474	1352.93396	1138.40881	60.49704	1273.53711	961.64465	59.83964	1449.65149	1242.62854	1801.81824	-3357.32104	2845.86377	1033.96631			 
5	0.040	1541.44824	1121.11304	1760.07373	1399.63501	1117.35022	1740.72974	1550.40967	1232.65686	1658.83496	1409.63232	1240.97339	1636.21265	1470.43628	1270.67554	1530.99561	1456.36182	1328.20264	1258.47278	1495.53906	1133.47485	1461.48535	1492.22839	1084.54431	1287.31030	1399.91284	1324.34814	1361.51343	1654.47656	1216.36951	1506.72546	1757.56006	1205.28796	1318.79712	1793.19971	1171.95715	1184.33484	1814.84985	1107.63196	1068.65955	1791.90662	1002.63733	980.50299	1825.06042	1045.25830	963.72046	1834.82849	998.44794	918.15906	1294.55981	1169.46362	1496.41333	1208.38477	1185.67505	1303.84009	1189.75281	1163.50513	1158.90356	1175.70911	1123.22302	1044.79761	1201.54016	1067.40002	922.87891	1162.70337	1108.66907	915.78668	1166.11536	1065.50427	856.74945	1615.91565	1117.64063	994.45258	1360.81873	1084.81702	983.66357	1504.82642	1316.06287	1039.52148	1391.32629	1305.51245	1037.11804	1652.37756	1219.89160	688.98236	1618.10950	1272.54407	490.37891	1606.54907	1348.47266	309.88004	1574.88525	1356.67688	83.45242	1518.71655	1383.34973	56.96780	1614.04028	1205.67078	38.92980	1268.28174	1091.36536	688.45453	1293.24597	1028.79297	490.86176	1276.20642	1068.02173	308.27740	1297.75415	1081.64929	114.58637	1353.15100	1110.09412	55.06865	1277.14160	932.09723	61.94810	1450.73730	1234.30566	1801.27686	-3360.09644	2845.23169	1033.71667			 
